<svg width="180" height="54" viewBox="0 0 180 54" fill="none" xmlns="http://www.w3.org/2000/svg">
<g clip-path="url(#clip0)">
<path d="M53.82 32.13C55.71 32.13 57.06 31.14 57.96 29.25C58.41 28.35 58.86 27.72 59.31 27.27C59.67 27 60.21 26.82 60.84 26.82C61.65 26.82 62.28 27.09 62.73 27.54C63.18 27.99 63.45 28.71 63.45 29.61C63.45 30.24 63.27 31.05 62.91 31.95C62.55 32.85 61.92 33.66 61.11 34.47C60.21 35.37 59.22 36 58.05 36.36C56.97 36.72 55.53 36.99 53.91 36.99C50.85 36.99 48.42 36 46.44 34.02C45.9 33.48 45.45 32.85 45.09 32.22C44.73 31.59 44.46 30.96 44.28 30.42C44.1 29.88 43.92 29.07 43.83 28.17C43.74 27.27 43.65 26.46 43.65 25.74C43.65 25.02 43.65 24.03 43.65 22.77C43.65 21.51 43.65 20.52 43.65 19.8C43.65 19.08 43.74 18.27 43.83 17.37C43.92 16.47 44.1 15.75 44.28 15.12C44.46 14.58 44.73 13.95 45.09 13.32C45.45 12.69 45.9 12.06 46.44 11.52C48.33 9.54 50.85 8.55 53.91 8.55C55.53 8.55 56.88 8.73 58.05 9.18C59.13 9.63 60.21 10.26 61.11 11.07C61.92 11.88 62.55 12.69 62.91 13.59C63.27 14.49 63.45 15.21 63.45 15.93C63.45 16.83 63.18 17.55 62.73 18C62.19 18.54 61.56 18.72 60.84 18.72C60.21 18.72 59.67 18.54 59.31 18.27C58.86 17.91 58.41 17.28 57.96 16.29C57.06 14.4 55.71 13.41 53.82 13.41C52.47 13.41 51.39 13.95 50.49 14.94C49.95 15.57 49.5 16.47 49.41 17.46C49.23 18.45 49.14 20.25 49.14 22.77C49.14 25.29 49.23 27.09 49.41 28.08C49.59 29.07 49.95 29.97 50.49 30.6C51.39 31.68 52.56 32.13 53.82 32.13Z" fill="#0056A4"/>
<path d="M72.3601 18.36C72.9001 17.73 73.6201 17.19 74.4301 16.74C75.3301 16.29 76.2301 16.11 77.2201 16.11C78.6601 16.11 79.8301 16.38 80.7301 17.01C81.6301 17.55 81.9901 18.27 81.9901 19.17C81.9901 19.89 81.7201 20.52 81.2701 21.06C80.8201 21.51 80.1901 21.78 79.5601 21.78C79.1101 21.78 78.4801 21.6 77.8501 21.24C77.2201 20.88 76.5001 20.7 75.9601 20.7C75.0601 20.7 74.2501 21.06 73.5301 21.69C72.8101 22.32 72.5401 23.31 72.5401 24.48V33.48C72.5401 34.56 72.4501 35.28 72.1801 35.73C71.7301 36.54 71.0101 36.99 69.9301 36.99C68.8501 36.99 68.1301 36.63 67.6801 35.73C67.5001 35.28 67.3201 34.56 67.3201 33.48V19.71C67.3201 19.08 67.3201 18.54 67.4101 18.27C67.5001 18 67.5901 17.73 67.6801 17.37C67.8601 17.01 68.1301 16.74 68.5801 16.56C68.9401 16.38 69.3901 16.2 69.9301 16.2C70.5601 16.2 71.1001 16.38 71.5501 16.83C72.0001 17.19 72.2701 17.64 72.3601 18.36Z" fill="#0056A4"/>
<path d="M97.29 28.17H87.48C87.48 29.52 87.84 30.6 88.65 31.5C89.46 32.31 90.54 32.76 91.98 32.76C93.33 32.76 94.5 32.4 95.49 31.68C96.21 31.14 96.84 30.96 97.38 30.96C97.92 30.96 98.37 31.14 98.82 31.59C99.27 32.04 99.45 32.49 99.45 33.12C99.45 34.02 98.82 34.83 97.47 35.73C96.03 36.63 94.23 37.17 91.89 37.17C90.9 37.17 89.91 37.08 89.01 36.9C88.11 36.72 87.3 36.36 86.4 35.91C85.59 35.46 84.87 34.83 84.24 34.02C83.7 33.21 83.16 32.22 82.89 31.05C82.53 29.79 82.35 28.44 82.35 26.82C82.35 23.58 83.16 20.97 84.78 19.17C86.4 17.37 88.56 16.38 91.26 16.38C93.96 16.38 96.03 17.19 97.65 18.9C99.18 20.61 100.08 22.77 100.17 25.47C100.17 26.46 99.99 27.27 99.45 27.72C99.27 27.9 99 28.08 98.73 28.17C98.46 28.26 98.19 28.35 98.01 28.35C97.92 28.17 97.65 28.17 97.29 28.17ZM95.22 24.66C95.22 23.76 95.04 23.04 94.77 22.41C94.5 21.78 94.05 21.24 93.42 20.88C92.79 20.52 92.16 20.34 91.26 20.34C90.45 20.34 89.73 20.52 89.1 20.88C88.47 21.24 88.11 21.78 87.84 22.41C87.57 23.04 87.39 23.76 87.39 24.66H95.22Z" fill="#0056A4"/>
<path d="M110.52 20.43C109.44 20.43 108.36 20.79 107.28 21.42C106.65 21.78 106.11 21.96 105.57 21.96C104.94 21.96 104.49 21.69 104.13 21.24C103.77 20.79 103.59 20.25 103.59 19.71C103.59 18.72 104.22 17.91 105.48 17.28C107.01 16.47 108.72 16.11 110.61 16.11C113.49 16.11 115.65 16.74 117.09 17.91C118.53 19.08 119.25 20.88 119.25 23.31V33.48C119.25 34.11 119.25 34.65 119.16 34.92C119.07 35.19 118.98 35.46 118.89 35.82C118.71 36.18 118.44 36.45 117.99 36.63C117.63 36.81 117.18 36.99 116.64 36.99C116.01 36.99 115.47 36.81 115.02 36.36C114.66 36.09 114.39 35.64 114.3 35.01C113.58 35.73 112.77 36.27 112.05 36.54C111.33 36.81 110.34 36.99 109.26 36.99C107.01 36.99 105.21 36.36 104.04 35.19C102.96 34.11 102.33 32.58 102.33 30.6C102.33 28.89 102.96 27.45 104.13 26.37C105.3 25.29 107.1 24.66 109.35 24.66H114.12V23.67C114.12 22.59 113.85 21.78 113.22 21.24C112.68 20.7 111.78 20.43 110.52 20.43ZM114.12 29.25V28.17H110.25C108.27 28.17 107.19 28.98 107.19 30.51C107.19 31.23 107.46 31.77 108 32.22C108.54 32.67 109.26 32.85 110.34 32.85C111.06 32.85 111.6 32.76 112.05 32.67C112.5 32.58 112.95 32.31 113.31 31.86C113.58 31.59 113.85 31.23 113.94 30.87C114.12 30.51 114.12 29.97 114.12 29.25Z" fill="#0056A4"/>
<path d="M124.74 30.96V20.88H124.2C123.39 20.88 122.85 20.79 122.49 20.61C121.86 20.25 121.59 19.71 121.59 18.9C121.59 18.09 121.86 17.55 122.49 17.19C122.85 17.01 123.39 16.92 124.2 16.92H124.74V14.22C124.74 13.14 124.83 12.42 125.1 11.97C125.46 11.16 126.27 10.71 127.35 10.71C128.43 10.71 129.15 11.16 129.6 11.97C129.78 12.42 129.96 13.14 129.96 14.22V16.92H131.49C132.3 16.92 132.84 17.01 133.2 17.19C133.83 17.55 134.1 18.09 134.1 18.9C134.1 19.71 133.83 20.25 133.2 20.61C132.84 20.79 132.3 20.88 131.49 20.88H129.96V30.69C129.96 31.86 130.5 32.4 131.58 32.49C132.3 32.49 132.75 32.67 133.11 32.76C133.83 33.12 134.1 33.75 134.1 34.56C134.1 35.46 133.74 36 133.11 36.36C132.66 36.63 131.94 36.72 131.04 36.72H130.77C129.78 36.72 128.88 36.54 128.07 36.27C127.26 35.91 126.63 35.46 126.18 34.92C125.73 34.38 125.37 33.75 125.19 33.03C124.92 32.49 124.74 31.68 124.74 30.96Z" fill="#0056A4"/>
<path d="M137.61 12.69C137.07 12.15 136.71 11.43 136.71 10.62C136.71 9.81 136.98 9.09 137.61 8.55C138.15 8.01 138.87 7.65 139.68 7.65C140.49 7.65 141.21 7.92 141.75 8.55C142.29 9.09 142.65 9.81 142.65 10.62C142.65 11.43 142.38 12.15 141.75 12.69C141.21 13.23 140.49 13.59 139.68 13.59C138.87 13.59 138.15 13.23 137.61 12.69ZM142.2 33.48C142.2 34.56 142.11 35.28 141.84 35.73C141.39 36.54 140.67 36.99 139.59 36.99C138.51 36.99 137.79 36.63 137.34 35.73C137.16 35.28 136.98 34.56 136.98 33.48V20.25C136.98 19.17 137.07 18.45 137.34 18C137.79 17.19 138.51 16.74 139.59 16.74C140.67 16.74 141.39 17.19 141.84 18C142.02 18.45 142.2 19.17 142.2 20.25V33.48Z" fill="#0056A4"/>
<path d="M150.03 34.2L145.26 20.16C144.9 19.08 144.81 18.27 144.99 17.82C145.17 17.37 145.44 17.01 145.89 16.65C146.34 16.29 146.79 16.2 147.33 16.2C147.69 16.2 148.05 16.29 148.32 16.38C148.59 16.47 148.86 16.74 149.04 17.01C149.22 17.28 149.4 17.55 149.49 17.73C149.58 17.91 149.67 18.27 149.85 18.63L153.09 28.53L156.33 18.63C156.42 18.27 156.6 17.91 156.69 17.73C156.78 17.55 156.96 17.28 157.14 17.01C157.32 16.74 157.59 16.56 157.86 16.38C158.13 16.29 158.49 16.2 158.85 16.2C159.39 16.2 159.93 16.38 160.29 16.65C160.74 16.92 161.01 17.37 161.19 17.82C161.37 18.27 161.28 19.08 160.92 20.16L156.06 34.2C155.7 35.19 155.34 35.91 154.89 36.27C154.44 36.72 153.81 36.9 153 36.9C152.28 36.9 151.65 36.72 151.11 36.27C150.75 35.91 150.39 35.19 150.03 34.2Z" fill="#0056A4"/>
<path d="M179.55 21.87C179.91 23.04 180.09 24.66 180.09 26.55C180.09 28.44 179.91 30.06 179.55 31.23C179.19 32.4 178.65 33.48 177.75 34.47C176.13 36.18 174.06 36.99 171.45 36.99C168.84 36.99 166.68 36.18 165.15 34.47C164.25 33.57 163.62 32.49 163.35 31.23C162.99 30.06 162.81 28.44 162.81 26.55C162.81 24.66 162.99 23.04 163.35 21.87C163.71 20.7 164.25 19.62 165.15 18.63C166.77 16.92 168.84 16.11 171.45 16.11C174.06 16.11 176.22 16.92 177.75 18.63C178.56 19.62 179.19 20.61 179.55 21.87ZM168.03 23.49C167.85 24.3 167.76 25.29 167.76 26.55C167.76 27.81 167.85 28.8 168.03 29.61C168.21 30.42 168.48 31.05 169.02 31.5C169.65 32.13 170.37 32.4 171.36 32.4C172.35 32.4 173.16 32.13 173.7 31.5C174.15 31.05 174.51 30.42 174.69 29.61C174.87 28.8 174.96 27.81 174.96 26.55C174.96 25.29 174.87 24.3 174.69 23.49C174.51 22.68 174.24 22.05 173.7 21.6C173.07 20.97 172.35 20.7 171.36 20.7C170.37 20.7 169.56 20.97 169.02 21.6C168.48 22.14 168.21 22.77 168.03 23.49Z" fill="#0056A4"/>
<path d="M20.16 41.49C31.2941 41.49 40.32 32.4641 40.32 21.33C40.32 10.1959 31.2941 1.17 20.16 1.17C9.02594 1.17 0 10.1959 0 21.33C0 32.4641 9.02594 41.49 20.16 41.49Z" fill="#E72814"/>
<path d="M13.32 34.65C12.96 34.65 12.69 34.65 12.42 34.65C12.24 34.65 11.88 34.56 11.61 34.47C11.25 34.38 10.98 34.2 10.8 33.93C10.53 33.66 10.35 33.39 10.26 33.12C10.17 32.76 10.08 32.49 10.08 32.31C10.08 32.13 10.08 31.77 10.08 31.41V10.08C10.08 9.72 10.08 9.45 10.08 9.18C10.08 9 10.17 8.64 10.26 8.37C10.35 8.01 10.53 7.74 10.8 7.56C11.07 7.29 11.34 7.11 11.61 7.02C11.97 6.93 12.24 6.84 12.42 6.84C12.6 6.84 12.96 6.84 13.32 6.84H20.07C21.96 6.84 23.58 7.2 24.93 7.83C26.28 8.46 27.45 9.54 28.53 10.98C29.34 12.06 29.88 13.32 30.06 14.67C30.24 16.02 30.33 18.09 30.33 20.88C30.33 23.67 30.24 25.65 30.06 27.09C29.88 28.44 29.34 29.7 28.53 30.78C27.45 32.22 26.28 33.21 24.93 33.93C23.58 34.56 21.96 34.92 20.07 34.92H13.32V34.65ZM15.48 11.61V29.79H19.62C21.42 29.79 22.77 29.25 23.67 28.08C24.12 27.45 24.48 26.64 24.57 25.74C24.75 24.75 24.75 23.13 24.75 20.79C24.75 18.45 24.66 16.83 24.57 15.84C24.39 14.85 24.12 14.04 23.67 13.5C22.77 12.33 21.42 11.79 19.62 11.79H15.48V11.61Z" fill="white"/>
<path fill-rule="evenodd" clip-rule="evenodd" d="M24.48 52.2H15.84C15.21 52.2 14.67 51.66 14.67 51.03V44.91C14.67 44.28 15.21 43.74 15.84 43.74H24.48C25.11 43.74 25.65 44.28 25.65 44.91V51.03C25.65 51.66 25.11 52.2 24.48 52.2Z" fill="#E72814"/>
<path d="M54.27 42.48V45V49.59V52.11H168.3V49.59V45V42.48H54.27Z" fill="#FFC936"/>
<path d="M174.24 49.68L173.52 48.69V45.9L174.15 44.82L178.29 46.53C178.92 46.8 178.92 47.7 178.29 47.97L174.24 49.68Z" fill="#1E120D"/>
<path d="M168.3 52.11V42.48L174.24 44.91L173.52 45.9V48.69L174.24 49.68L168.3 52.11Z" fill="#F7F398"/>
<path d="M51.75 52.11H45C44.28 52.11 43.65 51.48 43.65 50.76V43.74C43.65 43.02 44.28 42.39 45 42.39H51.75V52.11Z" fill="#E72814"/>
<path d="M54.27 42.48H51.75V52.11H54.27V42.48Z" fill="#ECEEF0"/>
</g>
<defs>
<clipPath id="clip0">
<rect width="180" height="54" fill="white"/>
</clipPath>
</defs>
</svg>
